External Loads File
version=1
nRows=94
nColumns=13
Range=5.000000e-03-10 seconds
endheader
time 	forceRightX 	forceRightY 	forceRightZ 	pointRightX 	pointRightY 	pointRightZ 	forceLeftX 	forceLeftY 	forceLeftZ 	pointLeftX 	pointLeftY 	pointLeftZ 		
7.505000 199.075028 549.820789 -0.000000 0.248883 0.156004 -0.148725 -15.319918 38.795292 -0.000000 0.321485 0.498501 -0.381724
7.510000 195.554220 516.908908 -0.000000 0.239893 0.158257 -0.148707 -20.200150 41.759079 -0.000000 0.330204 0.496861 -0.382243
7.515000 189.524375 482.456896 -0.000000 0.231046 0.161142 -0.148676 -25.675165 44.632193 -0.000000 0.338756 0.494531 -0.382277
7.520000 181.414560 447.651305 -0.000000 0.222419 0.164637 -0.148684 -31.796250 47.543898 -0.000000 0.347200 0.491575 -0.382483
7.525000 171.542834 413.753314 -0.000000 0.214063 0.168719 -0.148792 -38.583454 50.621891 -0.000000 0.355367 0.488011 -0.382850
7.530000 160.779861 381.715628 -0.000000 0.205897 0.173352 -0.148642 -45.938324 54.034792 -0.000000 0.363354 0.483798 -0.382987
7.535000 149.466487 352.537510 -0.000000 0.198091 0.178561 -0.148491 -53.783164 57.887450 -0.000000 0.370991 0.478963 -0.383050
7.540000 138.467985 326.749046 -0.000000 0.190614 0.184137 -0.148410 -61.924360 62.318791 -0.000000 0.378614 0.473557 -0.383421
7.545000 128.116469 304.759557 -0.000000 0.183572 0.190122 -0.148294 -70.218780 67.321353 -0.000000 0.385905 0.467480 -0.383610
7.550000 118.793711 286.512992 -0.000000 0.176990 0.196637 -0.148297 -78.516502 72.816166 -0.000000 0.392619 0.460892 -0.383571
7.555000 111.090633 271.401845 -0.000000 0.170764 0.203593 -0.148236 -86.603006 78.808722 -0.000000 0.398964 0.453801 -0.383527
7.560000 105.016563 258.699208 -0.000000 0.164996 0.210907 -0.148217 -94.387803 85.233793 -0.000000 0.404845 0.446233 -0.383388
7.565000 100.550098 247.509526 -0.000000 0.159699 0.218587 -0.148153 -101.767978 92.104740 -0.000000 0.410296 0.438223 -0.383305
7.570000 97.432891 237.034387 -0.000000 0.154798 0.226744 -0.148143 -108.687985 99.453590 -0.000000 0.415118 0.429897 -0.383406
7.575000 95.474326 226.596062 -0.000000 0.150403 0.235237 -0.148113 -115.057127 107.438252 -0.000000 0.419613 0.421063 -0.383331
7.580000 94.091522 215.926824 -0.000000 0.146556 0.244030 -0.147927 -120.981660 116.099897 -0.000000 0.423539 0.411930 -0.383298
7.585000 93.104747 204.863854 -0.000000 0.143176 0.253204 -0.148048 -126.398310 125.716165 -0.000000 0.426926 0.402461 -0.383205
7.590000 92.167136 193.559484 -0.000000 0.140371 0.262523 -0.148031 -131.340581 136.427362 -0.000000 0.429734 0.392670 -0.383138
7.595000 91.393707 182.125280 -0.000000 0.138021 0.272096 -0.148030 -135.549744 148.545272 -0.000000 0.432104 0.382513 -0.382971
7.600000 90.534938 170.928819 -0.000000 0.136255 0.281822 -0.147972 -139.079597 161.970838 -0.000000 0.433643 0.372314 -0.382974
7.605000 89.932172 160.034011 -0.000000 0.134894 0.291678 -0.148014 -141.604843 176.907368 -0.000000 0.434688 0.361886 -0.383139
7.610000 89.687442 149.567130 -0.000000 0.133950 0.301691 -0.147916 -143.080650 193.326340 -0.000000 0.435068 0.351282 -0.383277
7.615000 89.859083 139.633242 -0.000000 0.133079 0.311730 -0.148389 -143.611788 211.137875 -0.000000 0.435109 0.340625 -0.383790
7.620000 90.481827 130.319430 -0.000000 0.133333 0.321921 -0.148399 -143.387985 230.225193 -0.000000 0.434447 0.330076 -0.383221
7.625000 91.748851 121.548967 -0.000000 0.134063 0.332191 -0.148453 -142.229515 250.678902 -0.000000 0.433273 0.319469 -0.382867
7.630000 93.613433 113.326955 -0.000000 0.135331 0.342474 -0.148521 -140.195522 272.388570 -0.000000 0.431562 0.308936 -0.382871
7.635000 95.916932 105.677021 -0.000000 0.137257 0.352443 -0.148605 -137.524513 295.147194 -0.000000 0.429282 0.298568 -0.382854
7.640000 98.798573 98.268494 -0.000000 0.139462 0.362835 -0.148602 -133.417896 319.164270 -0.000000 0.426571 0.288343 -0.382778
7.645000 101.858817 91.207931 -0.000000 0.142184 0.372885 -0.148724 -128.425633 343.923289 -0.000000 0.423424 0.278271 -0.382630
7.650000 105.007167 84.302346 -0.000000 0.145482 0.382775 -0.148798 -122.245885 369.259378 -0.000000 0.419765 0.268406 -0.382504
7.655000 108.078981 77.396708 -0.000000 0.149418 0.392528 -0.148924 -114.787686 394.891358 -0.000000 0.415710 0.258768 -0.382297
7.660000 110.866900 70.377227 -0.000000 0.153659 0.402190 -0.149064 -106.132851 420.471907 -0.000000 0.411110 0.249412 -0.382140
7.665000 113.154955 63.177918 -0.000000 0.158588 0.411494 -0.149132 -96.476750 445.620616 -0.000000 0.406138 0.240341 -0.381933
7.670000 114.770995 55.728691 -0.000000 0.163711 0.420686 -0.149297 -85.861261 469.981183 -0.000000 0.400660 0.231593 -0.381743
7.675000 115.547287 48.116392 -0.000000 0.169269 0.429291 -0.149484 -74.766909 493.150681 -0.000000 0.394711 0.223182 -0.381582
7.680000 115.512623 40.256539 -0.000000 0.175338 0.437817 -0.149522 -62.739699 515.004226 -0.000000 0.388376 0.215170 -0.381541
7.685000 114.694737 32.309496 -0.000000 0.181740 0.446077 -0.149723 -50.197513 535.438300 -0.000000 0.381588 0.207530 -0.381472
7.690000 113.197511 24.469634 -0.000000 0.188542 0.453745 -0.149864 -37.731897 554.527545 -0.000000 0.374478 0.200296 -0.381290
7.695000 111.170391 16.848067 -0.000000 0.195493 0.460870 -0.150030 -25.628306 572.500269 -0.000000 0.366978 0.193518 -0.381145
7.700000 108.770124 9.051120 -0.000000 0.203990 0.467736 -0.149523 -11.504156 589.675140 -0.000000 0.359138 0.187233 -0.380986
7.705000 105.947230 1.985577 -0.000000 0.211269 0.474076 -0.149916 0.190388 606.139580 -0.000000 0.350985 0.181444 -0.380820
7.710000 102.763945 -4.647243 -0.000000 0.218650 0.479926 -0.150388 11.545183 622.151717 -0.000000 0.342523 0.176193 -0.380685
7.715000 99.193703 -10.715726 -0.000000 0.226129 0.485517 -0.150611 22.829484 637.766748 -0.000000 0.333767 0.171514 -0.380552
7.720000 95.209128 -15.985050 -0.000000 0.234076 0.489637 -0.150600 34.042573 652.938778 -0.000000 0.324819 0.167381 -0.380435
7.725000 90.766586 -20.297341 -0.000000 0.242075 0.494266 -0.151015 45.957764 667.447325 -0.000000 0.315653 0.163802 -0.380314
7.730000 85.860258 -23.237160 -0.000000 0.250092 0.497509 -0.151123 57.611288 680.971528 -0.000000 0.306329 0.160790 -0.380171
7.735000 80.406657 -24.628135 -0.000000 0.258194 0.500437 -0.151223 69.752071 692.860144 -0.000000 0.296939 0.158344 -0.380087
7.740000 74.306132 -24.208233 -0.000000 0.266391 0.502709 -0.151341 82.621031 702.312532 -0.000000 0.287415 0.156486 -0.380294
7.745000 67.487144 -21.654608 -0.000000 0.274569 0.504306 -0.151605 95.907346 708.535956 -0.000000 0.277897 0.155235 -0.380233
7.750000 59.914500 -16.755289 -0.000000 0.282954 0.505345 -0.151702 110.013035 710.721779 -0.000000 0.268416 0.154586 -0.380164
7.755000 51.678550 -9.369922 -0.000000 0.291294 0.505913 -0.151909 125.181790 708.209030 -0.000000 0.258498 0.154499 -0.381058
7.760000 43.034544 0.729473 -0.000000 0.299333 0.505739 -0.152072 137.669212 701.317559 -0.000000 0.249647 0.154925 -0.380948
7.765000 34.217098 13.182525 -0.000000 0.306840 0.504973 -0.152257 147.850423 690.054301 -0.000000 0.241257 0.155786 -0.380927
7.770000 25.483852 27.526352 -0.000000 0.314308 0.503717 -0.152330 154.322816 675.083125 -0.000000 0.234427 0.156995 -0.379491
7.775000 17.177927 43.048464 -0.000000 0.321167 0.502579 -0.152405 158.622303 656.683943 -0.000000 0.227496 0.158460 -0.379402
7.780000 9.532595 59.110975 -0.000000 0.327477 0.500674 -0.152437 159.660708 635.922182 -0.000000 0.221374 0.160057 -0.379292
7.785000 2.680995 75.018370 -0.000000 0.333148 0.499180 -0.152464 157.003727 613.840229 -0.000000 0.216117 0.161706 -0.379188
7.790000 -3.189682 90.083498 -0.000000 0.338274 0.497649 -0.152668 151.672131 591.087587 -0.000000 0.211685 0.163290 -0.379097
7.795000 -8.149089 103.689537 -0.000000 0.342302 0.496034 -0.152607 143.438358 568.465478 -0.000000 0.208141 0.164704 -0.378979
7.800000 -12.143590 115.310735 -0.000000 0.345740 0.495123 -0.152658 133.452115 546.139951 -0.000000 0.205441 0.165868 -0.378987
7.805000 -15.172763 124.538805 -0.000000 0.348451 0.494222 -0.152680 122.513849 524.083402 -0.000000 0.203629 0.166757 -0.378914
7.810000 -17.345321 131.103455 -0.000000 0.350322 0.493561 -0.152844 110.944809 502.187580 -0.000000 0.202663 0.167337 -0.378882
7.815000 -18.787621 134.904426 -0.000000 0.351342 0.493506 -0.153015 99.032665 480.288869 -0.000000 0.202492 0.167610 -0.378872
7.820000 -19.490209 136.020191 -0.000000 0.351649 0.493702 -0.153130 87.500305 458.214895 -0.000000 0.203090 0.167603 -0.378905
7.825000 -19.606196 134.632315 -0.000000 0.351148 0.494193 -0.153260 76.436539 436.067190 -0.000000 0.204420 0.167296 -0.378949
7.830000 -19.182267 131.028663 -0.000000 0.349979 0.494947 -0.153423 66.283336 414.028499 -0.000000 0.206372 0.166737 -0.379001
7.835000 -18.367090 125.531754 -0.000000 0.348190 0.495856 -0.153569 57.151654 392.459868 -0.000000 0.209001 0.165964 -0.378987
7.840000 -17.302843 118.473076 -0.000000 0.345783 0.496972 -0.153692 49.170211 371.775086 -0.000000 0.212179 0.165006 -0.379035
7.845000 -16.097881 110.182738 -0.000000 0.342815 0.498034 -0.153751 42.511158 352.480390 -0.000000 0.215855 0.163904 -0.378994
7.850000 -14.886378 100.979528 -0.000000 0.339361 0.499239 -0.153755 37.110480 335.255007 -0.000000 0.220017 0.162746 -0.379005
7.855000 -13.700594 91.170708 -0.000000 0.335453 0.500384 -0.153778 32.971225 320.805299 -0.000000 0.224590 0.161559 -0.379062
7.860000 -12.497718 81.029163 -0.000000 0.331269 0.501430 -0.153828 30.058598 309.755941 -0.000000 0.229530 0.160388 -0.379123
7.865000 -11.240027 70.792464 -0.000000 0.326704 0.502326 -0.153796 28.047402 302.610216 -0.000000 0.234772 0.159308 -0.379138
7.870000 -9.880942 60.693064 -0.000000 0.321448 0.503178 -0.153568 26.338056 299.692601 -0.000000 0.240259 0.158363 -0.379149
7.875000 -8.146270 51.026469 -0.000000 0.316110 0.503534 -0.153458 25.194864 301.062539 -0.000000 0.245921 0.157590 -0.379166
7.880000 -5.904185 42.126747 -0.000000 0.310699 0.503584 -0.153423 24.236939 306.690985 -0.000000 0.251714 0.157035 -0.379187
7.885000 -3.031323 34.401907 -0.000000 0.304976 0.503325 -0.153291 22.964247 316.394068 -0.000000 0.257567 0.156718 -0.379212
7.890000 0.644389 28.305505 -0.000000 0.299217 0.502723 -0.153257 21.399433 329.787113 -0.000000 0.263414 0.156650 -0.379217
7.895000 5.253325 24.264912 -0.000000 0.293363 0.501719 -0.153127 19.437550 346.362344 -0.000000 0.269103 0.156833 -0.379237
7.900000 10.903632 22.658030 -0.000000 0.287281 0.500404 -0.153152 16.845230 365.508824 -0.000000 0.274616 0.157262 -0.379311
7.905000 17.714563 23.749649 -0.000000 0.281605 0.498762 -0.152894 14.377585 386.517216 -0.000000 0.279846 0.157891 -0.379353
7.910000 25.673733 27.664917 -0.000000 0.276262 0.496929 -0.152626 12.107648 408.704799 -0.000000 0.284744 0.158698 -0.379357
7.915000 34.662904 34.333588 -0.000000 0.271133 0.495018 -0.152356 10.059389 431.389395 -0.000000 0.289256 0.159642 -0.379393
7.920000 44.471151 43.451525 -0.000000 0.266264 0.493012 -0.152106 8.426594 453.921642 -0.000000 0.293337 0.160662 -0.379436
7.925000 54.849041 54.465550 -0.000000 0.262007 0.491039 -0.151917 7.731472 475.685438 -0.000000 0.297007 0.161724 -0.379434
7.930000 65.417340 66.730685 -0.000000 0.258181 0.489242 -0.151659 7.669533 496.097884 -0.000000 0.300323 0.162786 -0.379368
7.935000 75.750167 79.497452 -0.000000 0.254635 0.487712 -0.151505 8.014175 514.608633 -0.000000 0.303244 0.163822 -0.379349
7.940000 85.426492 91.983666 -0.000000 0.251469 0.486507 -0.151313 8.636882 530.712083 -0.000000 0.305872 0.164812 -0.379327
7.945000 94.044766 103.490231 -0.000000 0.248635 0.485420 -0.151108 9.271965 543.964255 -0.000000 0.308176 0.165753 -0.379293
7.950000 101.256865 113.440611 -0.000000 0.246168 0.484089 -0.150991 9.604380 554.016275 -0.000000 0.310210 0.166591 -0.379183
7.955000 106.856347 121.344725 -0.000000 0.243951 0.483383 -0.150963 9.609403 560.608062 -0.000000 0.311973 0.167336 -0.379099
7.960000 110.716858 126.895387 -0.000000 0.241994 0.483166 -0.150910 9.139356 563.568917 -0.000000 0.313495 0.167967 -0.379080
7.965000 112.842339 129.930472 -0.000000 0.240334 0.483187 -0.150928 8.203516 562.845563 -0.000000 0.314749 0.168464 -0.379072
7.970000 113.279092 130.490085 -0.000000 0.238905 0.483523 -0.150968 6.674153 558.531604 -0.000000 0.315789 0.168819 -0.379101
